<svg width="31" height="32" viewBox="0 0 31 32" fill="none" xmlns="http://www.w3.org/2000/svg">
<path opacity="0.2" d="M24.0032 5.16688C24.6255 4.53468 24.1777 3.46534 23.2905 3.46534H9.19055C8.63826 3.46534 8.19055 3.01763 8.19055 2.46534V1C8.19055 0.447716 8.63826 0 9.19055 0H29.9333C30.4856 0 30.9333 0.447715 30.9333 1V22.1024C30.9333 22.6547 30.4856 23.1024 29.9333 23.1024H28.5219C27.9696 23.1024 27.5219 22.6547 27.5219 22.1024V8.93453C27.5219 8.03984 26.4369 7.59541 25.8093 8.233L3.12487 31.2761C2.73312 31.674 2.09136 31.674 1.69961 31.2761L0.690618 30.2512C0.307461 29.8619 0.30746 29.2373 0.690617 28.8481L24.0032 5.16688Z" fill="white"/>
</svg>
